<svg width="14" height="14" xmlns="http://www.w3.org/2000/svg"><g stroke="#DD4C4F" fill="none" fill-rule="evenodd"><path d="M6.564 5.57h0c-.627-.568-.187-1.986.968-3.154l.965-.975a2.905 2.905 0 014.186.038l-.119-.123a3.02 3.02 0 01-.067 4.254l-.875.851c-1.186 1.155-3.07 1.111-3.148 1.028h0"/><path d="M4 10l6-6" stroke-linecap="square"/><path d="M5.5 6.5h0c-.555-.552-1.958-.063-3.138 1.094l-.87.853a2.88 2.88 0 00.037 4.162l-.025-.024a2.969 2.969 0 004.217-.118l.733-.782c1.13-1.207 1.1-3.131 1.046-3.185h0"/></g></svg>