<svg width="120" height="120" xmlns="http://www.w3.org/2000/svg"><g fill="none" fill-rule="evenodd"><circle fill="#FF4501" cx="60" cy="60" r="60"/><path d="M71.74 72.327c-3.204 0-5.798-2.602-5.798-5.819 0-3.214 2.594-5.819 5.798-5.819s5.798 2.605 5.798 5.82c0 3.062-2.594 5.818-5.798 5.818m1.068 9.494c-3.967 3.983-11.443 4.288-13.732 4.288-2.288 0-9.765-.305-13.732-4.288a1.482 1.482 0 010-2.142c.61-.614 1.526-.614 2.136 0 2.442 2.449 7.782 3.367 11.596 3.367 3.815 0 9.155-.918 11.596-3.367.61-.614 1.526-.614 2.136 0 .458.611.458 1.531 0 2.142M40.614 66.508c0-3.214 2.594-5.819 5.798-5.819s5.798 2.605 5.798 5.82c0 3.216-2.594 5.818-5.798 5.818s-5.798-2.756-5.798-5.819M96 60.69c0-4.44-3.662-8.114-8.087-8.114-2.136 0-4.12.917-5.645 2.297-5.493-3.983-13.122-6.587-21.666-6.891l3.662-17.459 12.054 2.603c.152 3.063 2.593 5.513 5.797 5.513 3.205 0 5.798-2.603 5.798-5.819 0-3.214-2.593-5.819-5.798-5.819-2.288 0-4.272 1.378-5.187 3.216L63.5 27.308c-.458 0-.763 0-1.068.151-.305.154-.458.46-.61.92l-4.12 19.447c-8.544.306-16.326 2.91-21.971 6.89-1.526-1.376-3.51-2.296-5.645-2.296-4.425 0-8.087 3.675-8.087 8.116 0 3.369 1.984 6.127 4.73 7.352-.153.766-.153 1.531-.153 2.448C26.577 82.742 41.072 93 58.924 93 76.775 93 91.27 82.893 91.27 70.336c0-.765 0-1.682-.152-2.448C94.016 66.814 96 64.06 96 60.689" fill="#FFF"/></g></svg>