<svg height="48" width="48" xmlns="http://www.w3.org/2000/svg" xmlns:xlink="http://www.w3.org/1999/xlink"><defs><linearGradient id="a" x1="50%" x2="50%" y1="32.787%" y2="83.607%"><stop offset="0" stop-color="#fff"/><stop offset="1" stop-color="#f2f2f2"/></linearGradient><linearGradient id="b" x1="50%" x2="50%" y1="-37.872%" y2="100%"><stop offset="0" stop-color="#fff"/><stop offset=".26474" stop-color="#ebebeb"/><stop offset="1" stop-color="#cbcbcb"/></linearGradient><path id="c" d="m36.473 54.1c-4.336-.297-16.162-1.088-24.135-4.709-6.447-2.928-9.702-8.856-9.702-8.856s2.269-10.725 3.956-14.984c1.684-4.248 6.163-10.52 6.163-10.52s-.484-4.853 1.56-4.853c2.534 0 4.888 2.545 4.888 2.545s7.688-1.05 10.234 1.96c2.881 3.408 9.414 5.289 9.414 5.289s2.337-.685 1.374 2.98c-.963 3.664-4.201 6.885-10.69 6.89-2.315.002-3.04 1.418-2.917 3.263.255 3.86 4.078 9.772 4.078 9.772s7.616 11.349 5.777 11.223z"/><filter id="d" height="200%" width="200%" x="-50%" y="-50%"><feOffset in="SourceAlpha" result="shadowOffsetInner1"/><feComposite in="shadowOffsetInner1" in2="SourceAlpha" k2="-1" k3="1" operator="arithmetic" result="shadowInnerInner1"/><feColorMatrix in="shadowInnerInner1" values="0 0 0 0 1 0 0 0 0 1 0 0 0 0 1 0 0 0 0.5 0"/></filter><mask id="e" fill="#fff"><ellipse cx="24.003" cy="24" fill="#fff" fill-rule="evenodd" rx="24.003" ry="24"/></mask><mask id="f" fill="#fff"><path d="m34.073 44.1c-3.488-.239-17.79-.415-24.576-3.351-8.47-3.665-9.261-10.214-9.261-10.214s2.269-10.725 3.956-14.984c1.684-4.248 6.163-10.52 6.163-10.52s-.485-4.854 1.56-4.854c2.534 0 4.888 2.545 4.888 2.545s7.688-1.05 10.234 1.96c2.881 3.408 9.414 5.289 9.414 5.289s2.337-.685 1.374 2.98c-.963 3.664-4.201 6.885-10.69 6.89-2.315.002-3.04 1.418-2.917 3.263.255 3.86 4.078 9.772 4.078 9.772s7.616 11.349 5.777 11.223z" fill="#fff" fill-rule="evenodd"/></mask></defs><g fill="none" fill-rule="evenodd"><ellipse cx="24.003" cy="24" fill="#dd4c4f" mask="url(#e)" rx="24.003" ry="24"/><ellipse cx="24.003" cy="24" mask="url(#e)" rx="24.003" ry="24" stroke="#bb3933" stroke-width="1.194"/><g mask="url(#e)"><use fill="url(#a)" xlink:href="#c"/><use fill="#000" filter="url(#d)" xlink:href="#c"/></g><path d="m22.663 39.557c-.522-4.987-2.99-7.54-4.068-9.165-2.611-3.932-2.611-6.79-2.611-6.79s2.159 3.613 4.303 4.9c2.144 1.285 8.689 1.382 8.689 1.382s-2.14.103-2.333 2.543c-.03.368.006 2.332 1.237 5.14 1.314 2.997 6.269 10.673 6.269 10.673s-3.809 4.116-4.977 4.458c-1.44.423-7.184-4.246-7.184-4.246s1.031-5.491.675-8.895z" fill="url(#b)" mask="url(#e)"/><g mask="url(#e)"><ellipse cx="21.603" cy="14" mask="url(#f)" rx="24.003" ry="24" stroke="#bababa" stroke-width="1.194" transform="translate(2.4 10)"/></g></g></svg>